{
    "asset" : {
        "generator" : "Khronos glTF Blender I/O v1.8.19",
        "version" : "2.0"
    },
    "scene" : 0,
    "scenes" : [
        {
            "name" : "Scene",
            "nodes" : [
                1
            ]
        }
    ],
    "nodes" : [
        {
            "mesh" : 0,
            "name" : "Mesh_0"
        },
        {
            "children" : [
                0
            ],
            "name" : "root"
        }
    ],
    "materials" : [
        {
            "doubleSided" : true,
            "name" : "soil",
            "pbrMetallicRoughness" : {
                "baseColorTexture" : {
                    "index" : 0
                },
                "metallicFactor" : 0.10000000149011612,
                "roughnessFactor" : 0.8999999761581421
            }
        },
        {
            "doubleSided" : true,
            "name" : "\u0417\u0435\u043c\u043d\u043e\u0439 \u043f\u043e\u043a\u0440\u043e\u0432, \u0431\u0438\u0442\u044b\u0439 \u043a\u0430\u043c\u0435\u043d\u044c, 5,1 \u0441\u043c",
            "pbrMetallicRoughness" : {
                "baseColorTexture" : {
                    "index" : 1
                },
                "metallicFactor" : 0.10000000149011612,
                "roughnessFactor" : 0.8999999761581421
            }
        },
        {
            "doubleSided" : true,
            "name" : "Mat.002",
            "pbrMetallicRoughness" : {
                "baseColorFactor" : [
                    0.06678035110235214,
                    0.1999630630016327,
                    0.0467178113758564,
                    1
                ],
                "metallicFactor" : 0.3636363744735718,
                "roughnessFactor" : 0.3227272629737854
            }
        }
    ],
    "meshes" : [
        {
            "name" : "Mesh_0",
            "primitives" : [
                {
                    "attributes" : {
                        "POSITION" : 0,
                        "NORMAL" : 1,
                        "TEXCOORD_0" : 2
                    },
                    "indices" : 3,
                    "material" : 0
                },
                {
                    "attributes" : {
                        "POSITION" : 4,
                        "NORMAL" : 5,
                        "TEXCOORD_0" : 6
                    },
                    "indices" : 7,
                    "material" : 1
                },
                {
                    "attributes" : {
                        "POSITION" : 8,
                        "NORMAL" : 9,
                        "TEXCOORD_0" : 10
                    },
                    "indices" : 11,
                    "material" : 2
                }
            ]
        }
    ],
    "textures" : [
        {
            "sampler" : 0,
            "source" : 0
        },
        {
            "sampler" : 0,
            "source" : 1
        }
    ],
    "images" : [
        {
            "bufferView" : 4,
            "mimeType" : "image/jpeg",
            "name" : "Image_0"
        },
        {
            "bufferView" : 9,
            "mimeType" : "image/jpeg",
            "name" : "Image_1"
        }
    ],
    "accessors" : [
        {
            "bufferView" : 0,
            "componentType" : 5126,
            "count" : 34,
            "max" : [
                1.149999976158142,
                1.149999976158142,
                0
            ],
            "min" : [
                -1.4997597939553927e-33,
                -2.939152446204403e-16,
                -0.20000000298023224
            ],
            "type" : "VEC3"
        },
        {
            "bufferView" : 1,
            "componentType" : 5126,
            "count" : 34,
            "type" : "VEC3"
        },
        {
            "bufferView" : 2,
            "componentType" : 5126,
            "count" : 34,
            "type" : "VEC2"
        },
        {
            "bufferView" : 3,
            "componentType" : 5123,
            "count" : 42,
            "type" : "SCALAR"
        },
        {
            "bufferView" : 5,
            "componentType" : 5126,
            "count" : 36,
            "max" : [
                1.149999976158142,
                1.149999976158142,
                -0.20000000298023224
            ],
            "min" : [
                -4.124339479295078e-33,
                -3.1534655461451337e-16,
                -0.550000011920929
            ],
            "type" : "VEC3"
        },
        {
            "bufferView" : 6,
            "componentType" : 5126,
            "count" : 36,
            "type" : "VEC3"
        },
        {
            "bufferView" : 7,
            "componentType" : 5126,
            "count" : 36,
            "type" : "VEC2"
        },
        {
            "bufferView" : 8,
            "componentType" : 5123,
            "count" : 42,
            "type" : "SCALAR"
        },
        {
            "bufferView" : 10,
            "componentType" : 5126,
            "count" : 30322,
            "max" : [
                1.2808761596679688,
                1.2999818325042725,
                0.22913098335266113
            ],
            "min" : [
                -0.11069744825363159,
                -0.10525381565093994,
                -0.007885975763201714
            ],
            "type" : "VEC3"
        },
        {
            "bufferView" : 11,
            "componentType" : 5126,
            "count" : 30322,
            "type" : "VEC3"
        },
        {
            "bufferView" : 12,
            "componentType" : 5126,
            "count" : 30322,
            "type" : "VEC2"
        },
        {
            "bufferView" : 13,
            "componentType" : 5123,
            "count" : 60000,
            "type" : "SCALAR"
        }
    ],
    "bufferViews" : [
        {
            "buffer" : 0,
            "byteLength" : 408,
            "byteOffset" : 0
        },
        {
            "buffer" : 0,
            "byteLength" : 408,
            "byteOffset" : 408
        },
        {
            "buffer" : 0,
            "byteLength" : 272,
            "byteOffset" : 816
        },
        {
            "buffer" : 0,
            "byteLength" : 84,
            "byteOffset" : 1088
        },
        {
            "buffer" : 0,
            "byteLength" : 16014,
            "byteOffset" : 1172
        },
        {
            "buffer" : 0,
            "byteLength" : 432,
            "byteOffset" : 17188
        },
        {
            "buffer" : 0,
            "byteLength" : 432,
            "byteOffset" : 17620
        },
        {
            "buffer" : 0,
            "byteLength" : 288,
            "byteOffset" : 18052
        },
        {
            "buffer" : 0,
            "byteLength" : 84,
            "byteOffset" : 18340
        },
        {
            "buffer" : 0,
            "byteLength" : 19013,
            "byteOffset" : 18424
        },
        {
            "buffer" : 0,
            "byteLength" : 363864,
            "byteOffset" : 37440
        },
        {
            "buffer" : 0,
            "byteLength" : 363864,
            "byteOffset" : 401304
        },
        {
            "buffer" : 0,
            "byteLength" : 242576,
            "byteOffset" : 765168
        },
        {
            "buffer" : 0,
            "byteLength" : 120000,
            "byteOffset" : 1007744
        }
    ],
    "samplers" : [
        {
            "magFilter" : 9729,
            "minFilter" : 9987
        }
    ],
    "buffers" : [
        {
            "byteLength" : 1127744,
            "uri" : "data:application/octet-stream;base64,"
        }
    ]
}
