{
    "asset" : {
        "generator" : "Khronos glTF Blender I/O v1.8.19",
        "version" : "2.0"
    },
    "scene" : 0,
    "scenes" : [
        {
            "name" : "Scene",
            "nodes" : [
                0
            ]
        }
    ],
    "nodes" : [
        {
            "mesh" : 0,
            "name" : "root"
        }
    ],
    "materials" : [
        {
            "doubleSided" : true,
            "name" : "<auto>.004",
            "pbrMetallicRoughness" : {
                "metallicFactor" : 0.10000000149011612,
                "roughnessFactor" : 0.8999999761581421
            }
        },
        {
            "doubleSided" : true,
            "name" : "GRENADIN 25",
            "pbrMetallicRoughness" : {
                "baseColorFactor" : [
                    0.6795417070388794,
                    0.6172061562538147,
                    0.6172066330909729,
                    1
                ],
                "metallicFactor" : 0,
                "roughnessFactor" : 0.8307086229324341
            }
        },
        {
            "doubleSided" : true,
            "name" : "RAL 1036 metal",
            "pbrMetallicRoughness" : {
                "baseColorFactor" : [
                    0.2788940668106079,
                    0.19806919991970062,
                    0.11953848600387573,
                    1
                ],
                "metallicFactor" : 0.7637795209884644,
                "roughnessFactor" : 0.19291341304779053
            }
        },
        {
            "alphaMode" : "BLEND",
            "doubleSided" : true,
            "name" : "\u041e\u0441\u0442\u0435\u043a\u043b\u0435\u043d\u0438\u0435",
            "pbrMetallicRoughness" : {
                "baseColorFactor" : [
                    0.13013586401939392,
                    0.37123748660087585,
                    0.6104956269264221,
                    0.8031495213508606
                ],
                "metallicFactor" : 0,
                "roughnessFactor" : 0.06692913174629211
            }
        }
    ],
    "meshes" : [
        {
            "name" : "Mesh_5.002",
            "primitives" : [
                {
                    "attributes" : {
                        "POSITION" : 0,
                        "NORMAL" : 1,
                        "TEXCOORD_0" : 2
                    },
                    "indices" : 3,
                    "material" : 0
                },
                {
                    "attributes" : {
                        "POSITION" : 4,
                        "NORMAL" : 5,
                        "TEXCOORD_0" : 6
                    },
                    "indices" : 7,
                    "material" : 1
                },
                {
                    "attributes" : {
                        "POSITION" : 8,
                        "NORMAL" : 9,
                        "TEXCOORD_0" : 10
                    },
                    "indices" : 11,
                    "material" : 2
                },
                {
                    "attributes" : {
                        "POSITION" : 12,
                        "NORMAL" : 13,
                        "TEXCOORD_0" : 14
                    },
                    "indices" : 15,
                    "material" : 3
                }
            ]
        }
    ],
    "accessors" : [
        {
            "bufferView" : 0,
            "componentType" : 5126,
            "count" : 812,
            "max" : [
                3.484999895095825,
                1.3740932941436768,
                3
            ],
            "min" : [
                -2.940586684742341e-14,
                -0.28590670228004456,
                -7.434177229223969e-17
            ],
            "type" : "VEC3"
        },
        {
            "bufferView" : 1,
            "componentType" : 5126,
            "count" : 812,
            "type" : "VEC3"
        },
        {
            "bufferView" : 2,
            "componentType" : 5126,
            "count" : 812,
            "type" : "VEC2"
        },
        {
            "bufferView" : 3,
            "componentType" : 5123,
            "count" : 1212,
            "type" : "SCALAR"
        },
        {
            "bufferView" : 4,
            "componentType" : 5126,
            "count" : 23,
            "max" : [
                3.484999895095825,
                1.0540932416915894,
                3
            ],
            "min" : [
                0.3199999928474426,
                -0.28590670228004456,
                -6.454459879504733e-17
            ],
            "type" : "VEC3"
        },
        {
            "bufferView" : 5,
            "componentType" : 5126,
            "count" : 23,
            "type" : "VEC3"
        },
        {
            "bufferView" : 6,
            "componentType" : 5126,
            "count" : 23,
            "type" : "VEC2"
        },
        {
            "bufferView" : 7,
            "componentType" : 5123,
            "count" : 42,
            "type" : "SCALAR"
        },
        {
            "bufferView" : 8,
            "componentType" : 5126,
            "count" : 313,
            "max" : [
                0.3499999940395355,
                1.014093279838562,
                2.744999885559082
            ],
            "min" : [
                0.08500000089406967,
                0.03409329429268837,
                0.18000000715255737
            ],
            "type" : "VEC3"
        },
        {
            "bufferView" : 9,
            "componentType" : 5126,
            "count" : 313,
            "type" : "VEC3"
        },
        {
            "bufferView" : 10,
            "componentType" : 5126,
            "count" : 313,
            "type" : "VEC2"
        },
        {
            "bufferView" : 11,
            "componentType" : 5123,
            "count" : 426,
            "type" : "SCALAR"
        },
        {
            "bufferView" : 12,
            "componentType" : 5126,
            "count" : 10,
            "max" : [
                0.12999999523162842,
                0.9490932822227478,
                2.630000114440918
            ],
            "min" : [
                0.125,
                0.09909329563379288,
                0.28999999165534973
            ],
            "type" : "VEC3"
        },
        {
            "bufferView" : 13,
            "componentType" : 5126,
            "count" : 10,
            "type" : "VEC3"
        },
        {
            "bufferView" : 14,
            "componentType" : 5126,
            "count" : 10,
            "type" : "VEC2"
        },
        {
            "bufferView" : 15,
            "componentType" : 5123,
            "count" : 18,
            "type" : "SCALAR"
        }
    ],
    "bufferViews" : [
        {
            "buffer" : 0,
            "byteLength" : 9744,
            "byteOffset" : 0
        },
        {
            "buffer" : 0,
            "byteLength" : 9744,
            "byteOffset" : 9744
        },
        {
            "buffer" : 0,
            "byteLength" : 6496,
            "byteOffset" : 19488
        },
        {
            "buffer" : 0,
            "byteLength" : 2424,
            "byteOffset" : 25984
        },
        {
            "buffer" : 0,
            "byteLength" : 276,
            "byteOffset" : 28408
        },
        {
            "buffer" : 0,
            "byteLength" : 276,
            "byteOffset" : 28684
        },
        {
            "buffer" : 0,
            "byteLength" : 184,
            "byteOffset" : 28960
        },
        {
            "buffer" : 0,
            "byteLength" : 84,
            "byteOffset" : 29144
        },
        {
            "buffer" : 0,
            "byteLength" : 3756,
            "byteOffset" : 29228
        },
        {
            "buffer" : 0,
            "byteLength" : 3756,
            "byteOffset" : 32984
        },
        {
            "buffer" : 0,
            "byteLength" : 2504,
            "byteOffset" : 36740
        },
        {
            "buffer" : 0,
            "byteLength" : 852,
            "byteOffset" : 39244
        },
        {
            "buffer" : 0,
            "byteLength" : 120,
            "byteOffset" : 40096
        },
        {
            "buffer" : 0,
            "byteLength" : 120,
            "byteOffset" : 40216
        },
        {
            "buffer" : 0,
            "byteLength" : 80,
            "byteOffset" : 40336
        },
        {
            "buffer" : 0,
            "byteLength" : 36,
            "byteOffset" : 40416
        }
    ],
    "buffers" : [
        {
            "byteLength" : 40452,
            "uri" : "data:application/octet-stream;base64,"
        }
    ]
}
