{
    "asset" : {
        "generator" : "Khronos glTF Blender I/O v1.8.19",
        "version" : "2.0"
    },
    "scene" : 0,
    "scenes" : [
        {
            "name" : "Scene",
            "nodes" : [
                0
            ]
        }
    ],
    "nodes" : [
        {
            "mesh" : 0,
            "name" : " \u0412\u044b\u0434\u0430\u0432\u043b\u0438\u0432\u0430\u043d\u0438\u0435 [4951]",
            "scale" : [
                0.30480000376701355,
                0.30480000376701355,
                0.30480000376701355
            ]
        }
    ],
    "materials" : [
        {
            "doubleSided" : true,
            "name" : "\u0410\u043b\u044e\u043c\u0438\u043d\u0438\u0439",
            "pbrMetallicRoughness" : {
                "baseColorFactor" : [
                    0.28100892901420593,
                    0.28100892901420593,
                    0.28100892901420593,
                    1
                ],
                "metallicFactor" : 0.7637795209884644,
                "roughnessFactor" : 0.4055117964744568
            }
        },
        {
            "doubleSided" : true,
            "name" : "\u0414\u0435\u0440\u0435\u0432\u043e",
            "pbrMetallicRoughness" : {
                "baseColorFactor" : [
                    0.48689690232276917,
                    0.3138197660446167,
                    0.12430679798126221,
                    1
                ],
                "metallicFactor" : 0,
                "roughnessFactor" : 0.7834645509719849
            }
        }
    ],
    "meshes" : [
        {
            "name" : " \u0412\u044b\u0434\u0430\u0432\u043b\u0438\u0432\u0430\u043d\u0438\u0435 [4951] Geometry",
            "primitives" : [
                {
                    "attributes" : {
                        "POSITION" : 0,
                        "NORMAL" : 1,
                        "TEXCOORD_0" : 2
                    },
                    "indices" : 3,
                    "material" : 0
                },
                {
                    "attributes" : {
                        "POSITION" : 4,
                        "NORMAL" : 5,
                        "TEXCOORD_0" : 6
                    },
                    "indices" : 7,
                    "material" : 1
                }
            ]
        }
    ],
    "accessors" : [
        {
            "bufferView" : 0,
            "componentType" : 5126,
            "count" : 248,
            "max" : [
                3.346027135848999,
                0.9022310972213745,
                1.4763776063919067
            ],
            "min" : [
                -3.346027135848999,
                -0.9022308588027954,
                -3.0036986231607443e-07
            ],
            "type" : "VEC3"
        },
        {
            "bufferView" : 1,
            "componentType" : 5126,
            "count" : 248,
            "type" : "VEC3"
        },
        {
            "bufferView" : 2,
            "componentType" : 5126,
            "count" : 248,
            "type" : "VEC2"
        },
        {
            "bufferView" : 3,
            "componentType" : 5123,
            "count" : 564,
            "type" : "SCALAR"
        },
        {
            "bufferView" : 4,
            "componentType" : 5126,
            "count" : 216,
            "max" : [
                3.319955587387085,
                0.9023722410202026,
                1.4757145643234253
            ],
            "min" : [
                -3.3199541568756104,
                -0.9034047722816467,
                1.1804389953613281
            ],
            "type" : "VEC3"
        },
        {
            "bufferView" : 5,
            "componentType" : 5126,
            "count" : 216,
            "type" : "VEC3"
        },
        {
            "bufferView" : 6,
            "componentType" : 5126,
            "count" : 216,
            "type" : "VEC2"
        },
        {
            "bufferView" : 7,
            "componentType" : 5123,
            "count" : 324,
            "type" : "SCALAR"
        }
    ],
    "bufferViews" : [
        {
            "buffer" : 0,
            "byteLength" : 2976,
            "byteOffset" : 0
        },
        {
            "buffer" : 0,
            "byteLength" : 2976,
            "byteOffset" : 2976
        },
        {
            "buffer" : 0,
            "byteLength" : 1984,
            "byteOffset" : 5952
        },
        {
            "buffer" : 0,
            "byteLength" : 1128,
            "byteOffset" : 7936
        },
        {
            "buffer" : 0,
            "byteLength" : 2592,
            "byteOffset" : 9064
        },
        {
            "buffer" : 0,
            "byteLength" : 2592,
            "byteOffset" : 11656
        },
        {
            "buffer" : 0,
            "byteLength" : 1728,
            "byteOffset" : 14248
        },
        {
            "buffer" : 0,
            "byteLength" : 648,
            "byteOffset" : 15976
        }
    ],
    "buffers" : [
        {
            "byteLength" : 16624,
            "uri" : "data:application/octet-stream;base64,"
        }
    ]
}
