{
    "asset" : {
        "generator" : "Khronos glTF Blender I/O v1.8.19",
        "version" : "2.0"
    },
    "scene" : 0,
    "scenes" : [
        {
            "name" : "Scene",
            "nodes" : [
                0,
                1,
                2
            ]
        }
    ],
    "nodes" : [
        {
            "mesh" : 0,
            "name" : "Mesh_0.002",
            "translation" : [
                0,
                -1.149999976158142,
                0
            ]
        },
        {
            "mesh" : 1,
            "name" : "Mesh_1.001",
            "translation" : [
                0,
                -1.149999976158142,
                0
            ]
        },
        {
            "mesh" : 2,
            "name" : "Mesh_2",
            "translation" : [
                0,
                -1.149999976158142,
                0
            ]
        }
    ],
    "materials" : [
        {
            "doubleSided" : true,
            "name" : "\u041f\u043b\u0438\u0442\u043a\u0430 \u0431\u0435\u0442\u043e\u043d\u043d\u0430\u044f",
            "normalTexture" : {
                "index" : 0
            },
            "pbrMetallicRoughness" : {
                "baseColorTexture" : {
                    "index" : 1
                },
                "metallicFactor" : 0,
                "roughnessFactor" : 0.5
            }
        },
        {
            "doubleSided" : true,
            "name" : "\u041e\u0442\u0441\u0435\u0432",
            "pbrMetallicRoughness" : {
                "baseColorTexture" : {
                    "index" : 2
                },
                "metallicFactor" : 0,
                "roughnessFactor" : 0.6500000357627869
            }
        },
        {
            "doubleSided" : true,
            "name" : "\u0429\u0435\u0431\u0435\u043d\u044c",
            "normalTexture" : {
                "index" : 3
            },
            "pbrMetallicRoughness" : {
                "baseColorTexture" : {
                    "index" : 4
                },
                "metallicFactor" : 0,
                "roughnessFactor" : 0.5136363506317139
            }
        }
    ],
    "meshes" : [
        {
            "name" : "Mesh_0.002",
            "primitives" : [
                {
                    "attributes" : {
                        "POSITION" : 0,
                        "NORMAL" : 1,
                        "TEXCOORD_0" : 2
                    },
                    "indices" : 3,
                    "material" : 0
                }
            ]
        },
        {
            "name" : "Mesh_1.001",
            "primitives" : [
                {
                    "attributes" : {
                        "POSITION" : 4,
                        "NORMAL" : 5,
                        "TEXCOORD_0" : 6
                    },
                    "indices" : 7,
                    "material" : 1
                }
            ]
        },
        {
            "name" : "Mesh_2",
            "primitives" : [
                {
                    "attributes" : {
                        "POSITION" : 8,
                        "NORMAL" : 9,
                        "TEXCOORD_0" : 10
                    },
                    "indices" : 11,
                    "material" : 2
                }
            ]
        }
    ],
    "textures" : [
        {
            "sampler" : 0,
            "source" : 0
        },
        {
            "sampler" : 0,
            "source" : 1
        },
        {
            "sampler" : 0,
            "source" : 2
        },
        {
            "sampler" : 0,
            "source" : 3
        },
        {
            "sampler" : 0,
            "source" : 4
        }
    ],
    "images" : [
        {
            "bufferView" : 4,
            "mimeType" : "image/png",
            "name" : "\u0411\u0435\u0442\u043e\u043d\u043d\u0430\u044f \u043f\u043b\u0438\u0442\u043a\u0430 normal"
        },
        {
            "bufferView" : 5,
            "mimeType" : "image/png",
            "name" : "\u0411\u0435\u0442\u043e\u043d\u043d\u0430\u044f \u043f\u043b\u0438\u0442\u043a\u0430 diffuse"
        },
        {
            "bufferView" : 10,
            "mimeType" : "image/png",
            "name" : "sand"
        },
        {
            "bufferView" : 15,
            "mimeType" : "image/png",
            "name" : "TexturesCom_Ground_GravelGranite_2x2_512_normal"
        },
        {
            "bufferView" : 16,
            "mimeType" : "image/png",
            "name" : "TexturesCom_Ground_GravelGranite_2x2_512_albedo"
        }
    ],
    "accessors" : [
        {
            "bufferView" : 0,
            "componentType" : 5126,
            "count" : 28,
            "max" : [
                1.149999976158142,
                1.149999976158142,
                -0.0025762892328202724
            ],
            "min" : [
                -6.192230111175779e-34,
                -2.8672509956855375e-16,
                -0.08257628977298737
            ],
            "type" : "VEC3"
        },
        {
            "bufferView" : 1,
            "componentType" : 5126,
            "count" : 28,
            "type" : "VEC3"
        },
        {
            "bufferView" : 2,
            "componentType" : 5126,
            "count" : 28,
            "type" : "VEC2"
        },
        {
            "bufferView" : 3,
            "componentType" : 5123,
            "count" : 36,
            "type" : "SCALAR"
        },
        {
            "bufferView" : 6,
            "componentType" : 5126,
            "count" : 24,
            "max" : [
                1.149999976158142,
                1.149999976158142,
                -0.08257628977298737
            ],
            "min" : [
                -9.94162959606426e-34,
                -2.89786726626184e-16,
                -0.13257628679275513
            ],
            "type" : "VEC3"
        },
        {
            "bufferView" : 7,
            "componentType" : 5126,
            "count" : 24,
            "type" : "VEC3"
        },
        {
            "bufferView" : 8,
            "componentType" : 5126,
            "count" : 24,
            "type" : "VEC2"
        },
        {
            "bufferView" : 9,
            "componentType" : 5123,
            "count" : 36,
            "type" : "SCALAR"
        },
        {
            "bufferView" : 11,
            "componentType" : 5126,
            "count" : 26,
            "max" : [
                1.149999976158142,
                1.149999976158142,
                -0.13257628679275513
            ],
            "min" : [
                -4.51859844785095e-33,
                -3.1856591508879015e-16,
                -0.6025763154029846
            ],
            "type" : "VEC3"
        },
        {
            "bufferView" : 12,
            "componentType" : 5126,
            "count" : 26,
            "type" : "VEC3"
        },
        {
            "bufferView" : 13,
            "componentType" : 5126,
            "count" : 26,
            "type" : "VEC2"
        },
        {
            "bufferView" : 14,
            "componentType" : 5123,
            "count" : 36,
            "type" : "SCALAR"
        }
    ],
    "bufferViews" : [
        {
            "buffer" : 0,
            "byteLength" : 336,
            "byteOffset" : 0
        },
        {
            "buffer" : 0,
            "byteLength" : 336,
            "byteOffset" : 336
        },
        {
            "buffer" : 0,
            "byteLength" : 224,
            "byteOffset" : 672
        },
        {
            "buffer" : 0,
            "byteLength" : 72,
            "byteOffset" : 896
        },
        {
            "buffer" : 0,
            "byteLength" : 529236,
            "byteOffset" : 968
        },
        {
            "buffer" : 0,
            "byteLength" : 468264,
            "byteOffset" : 530204
        },
        {
            "buffer" : 0,
            "byteLength" : 288,
            "byteOffset" : 998468
        },
        {
            "buffer" : 0,
            "byteLength" : 288,
            "byteOffset" : 998756
        },
        {
            "buffer" : 0,
            "byteLength" : 192,
            "byteOffset" : 999044
        },
        {
            "buffer" : 0,
            "byteLength" : 72,
            "byteOffset" : 999236
        },
        {
            "buffer" : 0,
            "byteLength" : 538421,
            "byteOffset" : 999308
        },
        {
            "buffer" : 0,
            "byteLength" : 312,
            "byteOffset" : 1537732
        },
        {
            "buffer" : 0,
            "byteLength" : 312,
            "byteOffset" : 1538044
        },
        {
            "buffer" : 0,
            "byteLength" : 208,
            "byteOffset" : 1538356
        },
        {
            "buffer" : 0,
            "byteLength" : 72,
            "byteOffset" : 1538564
        },
        {
            "buffer" : 0,
            "byteLength" : 636209,
            "byteOffset" : 1538636
        },
        {
            "buffer" : 0,
            "byteLength" : 510806,
            "byteOffset" : 2174848
        }
    ],
    "samplers" : [
        {
            "magFilter" : 9729,
            "minFilter" : 9987
        }
    ],
    "buffers" : [
        {
            "byteLength" : 2685656,
            "uri" : "data:application/octet-stream;base64,"
        }
    ]
}
