{
    "asset" : {
        "generator" : "Khronos glTF Blender I/O v1.8.19",
        "version" : "2.0"
    },
    "scene" : 0,
    "scenes" : [
        {
            "name" : "Scene",
            "nodes" : [
                0,
                1,
                2,
                3
            ]
        }
    ],
    "nodes" : [
        {
            "mesh" : 0,
            "name" : "Mesh_0",
            "translation" : [
                -0.574999988079071,
                -0.574999988079071,
                0
            ]
        },
        {
            "mesh" : 1,
            "name" : "Mesh_1",
            "translation" : [
                -0.574999988079071,
                -0.574999988079071,
                0
            ]
        },
        {
            "mesh" : 2,
            "name" : "Mesh_2",
            "translation" : [
                -0.574999988079071,
                -0.574999988079071,
                0
            ]
        },
        {
            "mesh" : 3,
            "name" : "Mesh_3",
            "translation" : [
                -0.574999988079071,
                -0.574999988079071,
                0
            ]
        }
    ],
    "materials" : [
        {
            "doubleSided" : true,
            "name" : "\u0422\u0435\u0440\u0440\u0430\u0441\u043d\u0430\u044f \u0434\u043e\u0441\u043a\u0430",
            "normalTexture" : {
                "index" : 0
            },
            "pbrMetallicRoughness" : {
                "baseColorTexture" : {
                    "index" : 1
                },
                "metallicFactor" : 0,
                "roughnessFactor" : 0.5
            }
        },
        {
            "doubleSided" : true,
            "name" : "Material",
            "pbrMetallicRoughness" : {
                "baseColorFactor" : [
                    0.800000011920929,
                    0.800000011920929,
                    0.800000011920929,
                    1
                ],
                "metallicFactor" : 0,
                "roughnessFactor" : 0.4000000059604645
            }
        },
        {
            "doubleSided" : true,
            "name" : "\u0429\u0435\u0431\u0435\u043d\u044c",
            "normalTexture" : {
                "index" : 2
            },
            "pbrMetallicRoughness" : {
                "baseColorTexture" : {
                    "index" : 3
                },
                "metallicFactor" : 0,
                "roughnessFactor" : 0.5136363506317139
            }
        }
    ],
    "meshes" : [
        {
            "name" : "Mesh_0",
            "primitives" : [
                {
                    "attributes" : {
                        "POSITION" : 0,
                        "NORMAL" : 1,
                        "TEXCOORD_0" : 2
                    },
                    "indices" : 3,
                    "material" : 0
                }
            ]
        },
        {
            "name" : "Mesh_1",
            "primitives" : [
                {
                    "attributes" : {
                        "POSITION" : 4,
                        "NORMAL" : 5,
                        "TEXCOORD_0" : 6
                    },
                    "indices" : 7,
                    "material" : 0
                }
            ]
        },
        {
            "name" : "Mesh_2",
            "primitives" : [
                {
                    "attributes" : {
                        "POSITION" : 8,
                        "NORMAL" : 9,
                        "TEXCOORD_0" : 10
                    },
                    "indices" : 7,
                    "material" : 1
                }
            ]
        },
        {
            "name" : "Mesh_3",
            "primitives" : [
                {
                    "attributes" : {
                        "POSITION" : 11,
                        "NORMAL" : 12,
                        "TEXCOORD_0" : 13
                    },
                    "indices" : 7,
                    "material" : 2
                }
            ]
        }
    ],
    "textures" : [
        {
            "sampler" : 0,
            "source" : 0
        },
        {
            "sampler" : 0,
            "source" : 1
        },
        {
            "sampler" : 0,
            "source" : 2
        },
        {
            "sampler" : 0,
            "source" : 3
        }
    ],
    "images" : [
        {
            "bufferView" : 4,
            "mimeType" : "image/png",
            "name" : "\u0422\u0435\u0440\u0440\u0430\u0441\u043d\u0430\u044f \u0434\u043e\u0441\u043a\u0430 normal"
        },
        {
            "bufferView" : 5,
            "mimeType" : "image/png",
            "name" : "\u0422\u0435\u0440\u0440\u0430\u0441\u043d\u0430\u044f \u0434\u043e\u0441\u043a\u0430 diffuse"
        },
        {
            "bufferView" : 16,
            "mimeType" : "image/png",
            "name" : "TexturesCom_Ground_GravelGranite_2x2_512_normal"
        },
        {
            "bufferView" : 17,
            "mimeType" : "image/png",
            "name" : "TexturesCom_Ground_GravelGranite_2x2_512_albedo"
        }
    ],
    "accessors" : [
        {
            "bufferView" : 0,
            "componentType" : 5126,
            "count" : 28,
            "max" : [
                1.149999976158142,
                1.149999976158142,
                -0.0025762892328202724
            ],
            "min" : [
                -2.442830396698557e-34,
                -2.836634989807031e-16,
                -0.032576289027929306
            ],
            "type" : "VEC3"
        },
        {
            "bufferView" : 1,
            "componentType" : 5126,
            "count" : 28,
            "type" : "VEC3"
        },
        {
            "bufferView" : 2,
            "componentType" : 5126,
            "count" : 28,
            "type" : "VEC2"
        },
        {
            "bufferView" : 3,
            "componentType" : 5123,
            "count" : 36,
            "type" : "SCALAR"
        },
        {
            "bufferView" : 6,
            "componentType" : 5126,
            "count" : 28,
            "max" : [
                1.149999976158142,
                1.149999976158142,
                -0.032576289027929306
            ],
            "min" : [
                -3.433002718333023e-19,
                -2.9013001319783843e-16,
                -0.13257628679275513
            ],
            "type" : "VEC3"
        },
        {
            "bufferView" : 7,
            "componentType" : 5126,
            "count" : 28,
            "type" : "VEC3"
        },
        {
            "bufferView" : 8,
            "componentType" : 5126,
            "count" : 28,
            "type" : "VEC2"
        },
        {
            "bufferView" : 9,
            "componentType" : 5123,
            "count" : 36,
            "type" : "SCALAR"
        },
        {
            "bufferView" : 10,
            "componentType" : 5126,
            "count" : 28,
            "max" : [
                1.149999976158142,
                1.149999976158142,
                -0.13257628679275513
            ],
            "min" : [
                -1.3241581692003997e-18,
                -3.002957320538701e-16,
                -0.2825762927532196
            ],
            "type" : "VEC3"
        },
        {
            "bufferView" : 11,
            "componentType" : 5126,
            "count" : 28,
            "type" : "VEC3"
        },
        {
            "bufferView" : 12,
            "componentType" : 5126,
            "count" : 28,
            "type" : "VEC2"
        },
        {
            "bufferView" : 13,
            "componentType" : 5126,
            "count" : 28,
            "max" : [
                1.149999976158142,
                1.149999976158142,
                -0.2825762927532196
            ],
            "min" : [
                -2.3050161182662853e-18,
                -3.1352305149775247e-16,
                -0.48257628083229065
            ],
            "type" : "VEC3"
        },
        {
            "bufferView" : 14,
            "componentType" : 5126,
            "count" : 28,
            "type" : "VEC3"
        },
        {
            "bufferView" : 15,
            "componentType" : 5126,
            "count" : 28,
            "type" : "VEC2"
        }
    ],
    "bufferViews" : [
        {
            "buffer" : 0,
            "byteLength" : 336,
            "byteOffset" : 0
        },
        {
            "buffer" : 0,
            "byteLength" : 336,
            "byteOffset" : 336
        },
        {
            "buffer" : 0,
            "byteLength" : 224,
            "byteOffset" : 672
        },
        {
            "buffer" : 0,
            "byteLength" : 72,
            "byteOffset" : 896
        },
        {
            "buffer" : 0,
            "byteLength" : 506584,
            "byteOffset" : 968
        },
        {
            "buffer" : 0,
            "byteLength" : 430958,
            "byteOffset" : 507552
        },
        {
            "buffer" : 0,
            "byteLength" : 336,
            "byteOffset" : 938512
        },
        {
            "buffer" : 0,
            "byteLength" : 336,
            "byteOffset" : 938848
        },
        {
            "buffer" : 0,
            "byteLength" : 224,
            "byteOffset" : 939184
        },
        {
            "buffer" : 0,
            "byteLength" : 72,
            "byteOffset" : 939408
        },
        {
            "buffer" : 0,
            "byteLength" : 336,
            "byteOffset" : 939480
        },
        {
            "buffer" : 0,
            "byteLength" : 336,
            "byteOffset" : 939816
        },
        {
            "buffer" : 0,
            "byteLength" : 224,
            "byteOffset" : 940152
        },
        {
            "buffer" : 0,
            "byteLength" : 336,
            "byteOffset" : 940376
        },
        {
            "buffer" : 0,
            "byteLength" : 336,
            "byteOffset" : 940712
        },
        {
            "buffer" : 0,
            "byteLength" : 224,
            "byteOffset" : 941048
        },
        {
            "buffer" : 0,
            "byteLength" : 636209,
            "byteOffset" : 941272
        },
        {
            "buffer" : 0,
            "byteLength" : 510806,
            "byteOffset" : 1577484
        }
    ],
    "samplers" : [
        {
            "magFilter" : 9729,
            "minFilter" : 9987
        }
    ],
    "buffers" : [
        {
            "byteLength" : 2088292,
            "uri" : "data:application/octet-stream;base64,"
        }
    ]
}
