{
    "asset" : {
        "generator" : "Khronos glTF Blender I/O v1.8.19",
        "version" : "2.0"
    },
    "scene" : 0,
    "scenes" : [
        {
            "name" : "Scene",
            "nodes" : [
                0,
                1
            ]
        }
    ],
    "nodes" : [
        {
            "mesh" : 0,
            "name" : "Mesh_0.002",
            "translation" : [
                0,
                -1.149999976158142,
                0
            ]
        },
        {
            "mesh" : 1,
            "name" : "Mesh_1.001",
            "translation" : [
                0,
                -1.149999976158142,
                0
            ]
        }
    ],
    "materials" : [
        {
            "doubleSided" : true,
            "name" : "\u041e\u0442\u0441\u0435\u0432.001",
            "pbrMetallicRoughness" : {
                "baseColorTexture" : {
                    "index" : 0
                },
                "metallicFactor" : 0,
                "roughnessFactor" : 0.29545456171035767
            }
        },
        {
            "doubleSided" : true,
            "name" : "\u0429\u0435\u0431\u0435\u043d\u044c",
            "normalTexture" : {
                "index" : 1
            },
            "pbrMetallicRoughness" : {
                "baseColorTexture" : {
                    "index" : 2
                },
                "metallicFactor" : 0,
                "metallicRoughnessTexture" : {
                    "index" : 3
                }
            }
        }
    ],
    "meshes" : [
        {
            "name" : "Mesh_0.002",
            "primitives" : [
                {
                    "attributes" : {
                        "POSITION" : 0,
                        "NORMAL" : 1,
                        "TEXCOORD_0" : 2
                    },
                    "indices" : 3,
                    "material" : 0
                }
            ]
        },
        {
            "name" : "Mesh_1.001",
            "primitives" : [
                {
                    "attributes" : {
                        "POSITION" : 4,
                        "NORMAL" : 5,
                        "TEXCOORD_0" : 6
                    },
                    "indices" : 7,
                    "material" : 1
                }
            ]
        }
    ],
    "textures" : [
        {
            "sampler" : 0,
            "source" : 0
        },
        {
            "sampler" : 0,
            "source" : 1
        },
        {
            "sampler" : 0,
            "source" : 2
        },
        {
            "sampler" : 0,
            "source" : 3
        }
    ],
    "images" : [
        {
            "bufferView" : 4,
            "mimeType" : "image/jpeg",
            "name" : "woodchips"
        },
        {
            "bufferView" : 9,
            "mimeType" : "image/png",
            "name" : "TexturesCom_Ground_GravelGranite_2x2_512_normal"
        },
        {
            "bufferView" : 10,
            "mimeType" : "image/png",
            "name" : "TexturesCom_Ground_GravelGranite_2x2_512_albedo"
        },
        {
            "bufferView" : 11,
            "mimeType" : "image/png",
            "name" : "TexturesCom_Ground_GravelGranite_2x2_512_roughness"
        }
    ],
    "accessors" : [
        {
            "bufferView" : 0,
            "componentType" : 5126,
            "count" : 34,
            "max" : [
                1.149999976158142,
                1.149999976158142,
                0
            ],
            "min" : [
                -2.9995195879107854e-33,
                -3.0616169991140216e-16,
                -0.4000000059604645
            ],
            "type" : "VEC3"
        },
        {
            "bufferView" : 1,
            "componentType" : 5126,
            "count" : 34,
            "type" : "VEC3"
        },
        {
            "bufferView" : 2,
            "componentType" : 5126,
            "count" : 34,
            "type" : "VEC2"
        },
        {
            "bufferView" : 3,
            "componentType" : 5123,
            "count" : 42,
            "type" : "SCALAR"
        },
        {
            "bufferView" : 5,
            "componentType" : 5126,
            "count" : 38,
            "max" : [
                1.149999976158142,
                1.149999976158142,
                -0.4000000059604645
            ],
            "min" : [
                -4.499279198195186e-33,
                -3.1840815520236404e-16,
                -0.6000000238418579
            ],
            "type" : "VEC3"
        },
        {
            "bufferView" : 6,
            "componentType" : 5126,
            "count" : 38,
            "type" : "VEC3"
        },
        {
            "bufferView" : 7,
            "componentType" : 5126,
            "count" : 38,
            "type" : "VEC2"
        },
        {
            "bufferView" : 8,
            "componentType" : 5123,
            "count" : 42,
            "type" : "SCALAR"
        }
    ],
    "bufferViews" : [
        {
            "buffer" : 0,
            "byteLength" : 408,
            "byteOffset" : 0
        },
        {
            "buffer" : 0,
            "byteLength" : 408,
            "byteOffset" : 408
        },
        {
            "buffer" : 0,
            "byteLength" : 272,
            "byteOffset" : 816
        },
        {
            "buffer" : 0,
            "byteLength" : 84,
            "byteOffset" : 1088
        },
        {
            "buffer" : 0,
            "byteLength" : 592510,
            "byteOffset" : 1172
        },
        {
            "buffer" : 0,
            "byteLength" : 456,
            "byteOffset" : 593684
        },
        {
            "buffer" : 0,
            "byteLength" : 456,
            "byteOffset" : 594140
        },
        {
            "buffer" : 0,
            "byteLength" : 304,
            "byteOffset" : 594596
        },
        {
            "buffer" : 0,
            "byteLength" : 84,
            "byteOffset" : 594900
        },
        {
            "buffer" : 0,
            "byteLength" : 592411,
            "byteOffset" : 594984
        },
        {
            "buffer" : 0,
            "byteLength" : 510806,
            "byteOffset" : 1187396
        },
        {
            "buffer" : 0,
            "byteLength" : 231508,
            "byteOffset" : 1698204
        }
    ],
    "samplers" : [
        {
            "magFilter" : 9729,
            "minFilter" : 9987
        }
    ],
    "buffers" : [
        {
            "byteLength" : 1929712,
            "uri" : "data:application/octet-stream;base64,"
        }
    ]
}
