{
    "asset" : {
        "generator" : "Khronos glTF Blender I/O v1.8.19",
        "version" : "2.0"
    },
    "scene" : 0,
    "scenes" : [
        {
            "name" : "Scene",
            "nodes" : [
                0
            ]
        }
    ],
    "nodes" : [
        {
            "mesh" : 0,
            "name" : "Icosphere.000_mat.tree-laurel_0",
            "rotation" : [
                -0.7071067690849304,
                0,
                0,
                0.7071067690849304
            ],
            "translation" : [
                0,
                0,
                -0.1139407753944397
            ]
        }
    ],
    "materials" : [
        {
            "doubleSided" : true,
            "name" : "mat.tree-laurel",
            "occlusionTexture" : {
                "index" : 0
            },
            "pbrMetallicRoughness" : {
                "baseColorTexture" : {
                    "index" : 1
                },
                "metallicFactor" : 0,
                "metallicRoughnessTexture" : {
                    "index" : 0
                },
                "roughnessFactor" : 0.8065930008888245
            }
        }
    ],
    "meshes" : [
        {
            "name" : "Icosphere.000_mat.tree-laurel_0",
            "primitives" : [
                {
                    "attributes" : {
                        "POSITION" : 0,
                        "NORMAL" : 1,
                        "TEXCOORD_0" : 2
                    },
                    "indices" : 3,
                    "material" : 0
                }
            ]
        }
    ],
    "textures" : [
        {
            "sampler" : 0,
            "source" : 0
        },
        {
            "sampler" : 1,
            "source" : 1
        }
    ],
    "images" : [
        {
            "bufferView" : 4,
            "mimeType" : "image/png",
            "name" : "mat.tree-laurel_metallicRoughness"
        },
        {
            "bufferView" : 5,
            "mimeType" : "image/jpeg",
            "name" : "mat.tree-laurel_baseColor"
        }
    ],
    "accessors" : [
        {
            "bufferView" : 0,
            "componentType" : 5126,
            "count" : 3235,
            "max" : [
                3.2806661128997803,
                -0.11086052656173706,
                2.9687559604644775
            ],
            "min" : [
                -3.069737672805786,
                -6.199185371398926,
                -2.9643213748931885
            ],
            "type" : "VEC3"
        },
        {
            "bufferView" : 1,
            "componentType" : 5126,
            "count" : 3235,
            "type" : "VEC3"
        },
        {
            "bufferView" : 2,
            "componentType" : 5126,
            "count" : 3235,
            "type" : "VEC2"
        },
        {
            "bufferView" : 3,
            "componentType" : 5123,
            "count" : 3261,
            "type" : "SCALAR"
        }
    ],
    "bufferViews" : [
        {
            "buffer" : 0,
            "byteLength" : 38820,
            "byteOffset" : 0
        },
        {
            "buffer" : 0,
            "byteLength" : 38820,
            "byteOffset" : 38820
        },
        {
            "buffer" : 0,
            "byteLength" : 25880,
            "byteOffset" : 77640
        },
        {
            "buffer" : 0,
            "byteLength" : 6522,
            "byteOffset" : 103520
        },
        {
            "buffer" : 0,
            "byteLength" : 130523,
            "byteOffset" : 110044
        },
        {
            "buffer" : 0,
            "byteLength" : 496821,
            "byteOffset" : 240568
        }
    ],
    "samplers" : [
        {
            "magFilter" : 9728,
            "minFilter" : 9984
        },
        {
            "magFilter" : 9729,
            "minFilter" : 9987
        }
    ],
    "buffers" : [
        {
            "byteLength" : 737392,
            "uri" : "data:application/octet-stream;base64,"
        }
    ]
}
