{
    "asset" : {
        "generator" : "Khronos glTF Blender I/O v1.8.19",
        "version" : "2.0"
    },
    "scene" : 0,
    "scenes" : [
        {
            "name" : "Scene",
            "nodes" : [
                0,
                1
            ]
        }
    ],
    "nodes" : [
        {
            "mesh" : 0,
            "name" : "tree6_bark_0",
            "rotation" : [
                -0.7071068286895752,
                0,
                0,
                0.7071068286895752
            ]
        },
        {
            "mesh" : 1,
            "name" : "tree6_leaves_0",
            "rotation" : [
                -0.7071068286895752,
                0,
                0,
                0.7071068286895752
            ]
        }
    ],
    "materials" : [
        {
            "doubleSided" : true,
            "name" : "bark",
            "normalTexture" : {
                "index" : 0
            },
            "pbrMetallicRoughness" : {
                "baseColorTexture" : {
                    "index" : 1
                },
                "metallicFactor" : 0,
                "metallicRoughnessTexture" : {
                    "index" : 2
                }
            }
        },
        {
            "alphaMode" : "BLEND",
            "doubleSided" : true,
            "name" : "leaves",
            "pbrMetallicRoughness" : {
                "baseColorTexture" : {
                    "index" : 3
                },
                "metallicFactor" : 0,
                "roughnessFactor" : 0.6800991296768188
            }
        }
    ],
    "meshes" : [
        {
            "name" : "tree6_bark_0",
            "primitives" : [
                {
                    "attributes" : {
                        "POSITION" : 0,
                        "NORMAL" : 1,
                        "TEXCOORD_0" : 2,
                        "TEXCOORD_1" : 3
                    },
                    "indices" : 4,
                    "material" : 0
                }
            ]
        },
        {
            "name" : "tree6_leaves_0",
            "primitives" : [
                {
                    "attributes" : {
                        "POSITION" : 5,
                        "NORMAL" : 6,
                        "TEXCOORD_0" : 7,
                        "TEXCOORD_1" : 8
                    },
                    "indices" : 9,
                    "material" : 1
                }
            ]
        }
    ],
    "textures" : [
        {
            "sampler" : 0,
            "source" : 0
        },
        {
            "sampler" : 0,
            "source" : 1
        },
        {
            "sampler" : 0,
            "source" : 2
        },
        {
            "sampler" : 0,
            "source" : 3
        }
    ],
    "images" : [
        {
            "bufferView" : 5,
            "mimeType" : "image/png",
            "name" : "Image_2"
        },
        {
            "bufferView" : 6,
            "mimeType" : "image/png",
            "name" : "Image_0"
        },
        {
            "bufferView" : 7,
            "mimeType" : "image/png",
            "name" : "Image_1"
        },
        {
            "bufferView" : 13,
            "mimeType" : "image/png",
            "name" : "Image_3"
        }
    ],
    "accessors" : [
        {
            "bufferView" : 0,
            "componentType" : 5126,
            "count" : 603,
            "max" : [
                25.711669921875,
                1.914906706796906e-16,
                25.97661018371582
            ],
            "min" : [
                -25.492080688476562,
                -82.92899322509766,
                -23.74393081665039
            ],
            "type" : "VEC3"
        },
        {
            "bufferView" : 1,
            "componentType" : 5126,
            "count" : 603,
            "type" : "VEC3"
        },
        {
            "bufferView" : 2,
            "componentType" : 5126,
            "count" : 603,
            "type" : "VEC2"
        },
        {
            "bufferView" : 3,
            "componentType" : 5126,
            "count" : 603,
            "type" : "VEC2"
        },
        {
            "bufferView" : 4,
            "componentType" : 5123,
            "count" : 1806,
            "type" : "SCALAR"
        },
        {
            "bufferView" : 8,
            "componentType" : 5126,
            "count" : 2520,
            "max" : [
                33.046138763427734,
                -23.21108055114746,
                32.32558822631836
            ],
            "min" : [
                -31.395790100097656,
                -88.13509368896484,
                -30.874649047851562
            ],
            "type" : "VEC3"
        },
        {
            "bufferView" : 9,
            "componentType" : 5126,
            "count" : 2520,
            "type" : "VEC3"
        },
        {
            "bufferView" : 10,
            "componentType" : 5126,
            "count" : 2520,
            "type" : "VEC2"
        },
        {
            "bufferView" : 11,
            "componentType" : 5126,
            "count" : 2520,
            "type" : "VEC2"
        },
        {
            "bufferView" : 12,
            "componentType" : 5123,
            "count" : 3780,
            "type" : "SCALAR"
        }
    ],
    "bufferViews" : [
        {
            "buffer" : 0,
            "byteLength" : 7236,
            "byteOffset" : 0
        },
        {
            "buffer" : 0,
            "byteLength" : 7236,
            "byteOffset" : 7236
        },
        {
            "buffer" : 0,
            "byteLength" : 4824,
            "byteOffset" : 14472
        },
        {
            "buffer" : 0,
            "byteLength" : 4824,
            "byteOffset" : 19296
        },
        {
            "buffer" : 0,
            "byteLength" : 3612,
            "byteOffset" : 24120
        },
        {
            "buffer" : 0,
            "byteLength" : 656533,
            "byteOffset" : 27732
        },
        {
            "buffer" : 0,
            "byteLength" : 677729,
            "byteOffset" : 684268
        },
        {
            "buffer" : 0,
            "byteLength" : 205240,
            "byteOffset" : 1362000
        },
        {
            "buffer" : 0,
            "byteLength" : 30240,
            "byteOffset" : 1567240
        },
        {
            "buffer" : 0,
            "byteLength" : 30240,
            "byteOffset" : 1597480
        },
        {
            "buffer" : 0,
            "byteLength" : 20160,
            "byteOffset" : 1627720
        },
        {
            "buffer" : 0,
            "byteLength" : 20160,
            "byteOffset" : 1647880
        },
        {
            "buffer" : 0,
            "byteLength" : 7560,
            "byteOffset" : 1668040
        },
        {
            "buffer" : 0,
            "byteLength" : 581007,
            "byteOffset" : 1675600
        }
    ],
    "samplers" : [
        {
            "magFilter" : 9729,
            "minFilter" : 9987
        }
    ],
    "buffers" : [
        {
            "byteLength" : 2256608,
            "uri" : "data:application/octet-stream;base64,"
        }
    ]
}
