{
    "asset" : {
        "generator" : "Khronos glTF Blender I/O v1.8.19",
        "version" : "2.0"
    },
    "scene" : 0,
    "scenes" : [
        {
            "name" : "Scene",
            "nodes" : [
                0
            ]
        }
    ],
    "nodes" : [
        {
            "mesh" : 0,
            "name" : "Mesh61__2_0",
            "rotation" : [
                -0.7071067094802856,
                0,
                0,
                0.7071068286895752
            ],
            "scale" : [
                0.054999999701976776,
                0.054999999701976776,
                0.054999999701976776
            ]
        }
    ],
    "materials" : [
        {
            "alphaCutoff" : 0.3553459048271179,
            "alphaMode" : "MASK",
            "doubleSided" : true,
            "name" : "material",
            "pbrMetallicRoughness" : {
                "baseColorTexture" : {
                    "index" : 0
                },
                "metallicFactor" : 0,
                "roughnessFactor" : 0.8199772834777832
            }
        },
        {
            "doubleSided" : true,
            "name" : "material_1",
            "pbrMetallicRoughness" : {
                "baseColorTexture" : {
                    "index" : 1
                },
                "metallicFactor" : 0,
                "roughnessFactor" : 0.9302135109901428
            }
        }
    ],
    "meshes" : [
        {
            "name" : "Mesh61__2_0",
            "primitives" : [
                {
                    "attributes" : {
                        "POSITION" : 0,
                        "NORMAL" : 1,
                        "TEXCOORD_0" : 2,
                        "TEXCOORD_1" : 3,
                        "TEXCOORD_2" : 4,
                        "TEXCOORD_3" : 5,
                        "TEXCOORD_4" : 6,
                        "TEXCOORD_5" : 7,
                        "TEXCOORD_6" : 8,
                        "TEXCOORD_7" : 9
                    },
                    "indices" : 10,
                    "material" : 0
                },
                {
                    "attributes" : {
                        "POSITION" : 11,
                        "NORMAL" : 12,
                        "TEXCOORD_0" : 13,
                        "TEXCOORD_1" : 14,
                        "TEXCOORD_2" : 15,
                        "TEXCOORD_3" : 16,
                        "TEXCOORD_4" : 17,
                        "TEXCOORD_5" : 18,
                        "TEXCOORD_6" : 19,
                        "TEXCOORD_7" : 20
                    },
                    "indices" : 21,
                    "material" : 1
                }
            ]
        }
    ],
    "textures" : [
        {
            "sampler" : 0,
            "source" : 0
        },
        {
            "sampler" : 0,
            "source" : 1
        }
    ],
    "images" : [
        {
            "bufferView" : 11,
            "mimeType" : "image/png",
            "name" : "Image_0"
        },
        {
            "bufferView" : 23,
            "mimeType" : "image/jpeg",
            "name" : "Image_1"
        }
    ],
    "accessors" : [
        {
            "bufferView" : 0,
            "componentType" : 5126,
            "count" : 624,
            "max" : [
                30.984375,
                -25.112016677856445,
                23.512008666992188
            ],
            "min" : [
                -34.786651611328125,
                -101.45806884765625,
                -37.47590637207031
            ],
            "type" : "VEC3"
        },
        {
            "bufferView" : 1,
            "componentType" : 5126,
            "count" : 624,
            "type" : "VEC3"
        },
        {
            "bufferView" : 2,
            "componentType" : 5126,
            "count" : 624,
            "type" : "VEC2"
        },
        {
            "bufferView" : 3,
            "componentType" : 5126,
            "count" : 624,
            "type" : "VEC2"
        },
        {
            "bufferView" : 4,
            "componentType" : 5126,
            "count" : 624,
            "type" : "VEC2"
        },
        {
            "bufferView" : 5,
            "componentType" : 5126,
            "count" : 624,
            "type" : "VEC2"
        },
        {
            "bufferView" : 6,
            "componentType" : 5126,
            "count" : 624,
            "type" : "VEC2"
        },
        {
            "bufferView" : 7,
            "componentType" : 5126,
            "count" : 624,
            "type" : "VEC2"
        },
        {
            "bufferView" : 8,
            "componentType" : 5126,
            "count" : 624,
            "type" : "VEC2"
        },
        {
            "bufferView" : 9,
            "componentType" : 5126,
            "count" : 624,
            "type" : "VEC2"
        },
        {
            "bufferView" : 10,
            "componentType" : 5123,
            "count" : 624,
            "type" : "SCALAR"
        },
        {
            "bufferView" : 12,
            "componentType" : 5126,
            "count" : 1692,
            "max" : [
                7.556640625,
                1.4950419664382935,
                2.5648956298828125
            ],
            "min" : [
                -13.552963256835938,
                -80.99864959716797,
                -14.071609497070312
            ],
            "type" : "VEC3"
        },
        {
            "bufferView" : 13,
            "componentType" : 5126,
            "count" : 1692,
            "type" : "VEC3"
        },
        {
            "bufferView" : 14,
            "componentType" : 5126,
            "count" : 1692,
            "type" : "VEC2"
        },
        {
            "bufferView" : 15,
            "componentType" : 5126,
            "count" : 1692,
            "type" : "VEC2"
        },
        {
            "bufferView" : 16,
            "componentType" : 5126,
            "count" : 1692,
            "type" : "VEC2"
        },
        {
            "bufferView" : 17,
            "componentType" : 5126,
            "count" : 1692,
            "type" : "VEC2"
        },
        {
            "bufferView" : 18,
            "componentType" : 5126,
            "count" : 1692,
            "type" : "VEC2"
        },
        {
            "bufferView" : 19,
            "componentType" : 5126,
            "count" : 1692,
            "type" : "VEC2"
        },
        {
            "bufferView" : 20,
            "componentType" : 5126,
            "count" : 1692,
            "type" : "VEC2"
        },
        {
            "bufferView" : 21,
            "componentType" : 5126,
            "count" : 1692,
            "type" : "VEC2"
        },
        {
            "bufferView" : 22,
            "componentType" : 5123,
            "count" : 1692,
            "type" : "SCALAR"
        }
    ],
    "bufferViews" : [
        {
            "buffer" : 0,
            "byteLength" : 7488,
            "byteOffset" : 0
        },
        {
            "buffer" : 0,
            "byteLength" : 7488,
            "byteOffset" : 7488
        },
        {
            "buffer" : 0,
            "byteLength" : 4992,
            "byteOffset" : 14976
        },
        {
            "buffer" : 0,
            "byteLength" : 4992,
            "byteOffset" : 19968
        },
        {
            "buffer" : 0,
            "byteLength" : 4992,
            "byteOffset" : 24960
        },
        {
            "buffer" : 0,
            "byteLength" : 4992,
            "byteOffset" : 29952
        },
        {
            "buffer" : 0,
            "byteLength" : 4992,
            "byteOffset" : 34944
        },
        {
            "buffer" : 0,
            "byteLength" : 4992,
            "byteOffset" : 39936
        },
        {
            "buffer" : 0,
            "byteLength" : 4992,
            "byteOffset" : 44928
        },
        {
            "buffer" : 0,
            "byteLength" : 4992,
            "byteOffset" : 49920
        },
        {
            "buffer" : 0,
            "byteLength" : 1248,
            "byteOffset" : 54912
        },
        {
            "buffer" : 0,
            "byteLength" : 148532,
            "byteOffset" : 56160
        },
        {
            "buffer" : 0,
            "byteLength" : 20304,
            "byteOffset" : 204692
        },
        {
            "buffer" : 0,
            "byteLength" : 20304,
            "byteOffset" : 224996
        },
        {
            "buffer" : 0,
            "byteLength" : 13536,
            "byteOffset" : 245300
        },
        {
            "buffer" : 0,
            "byteLength" : 13536,
            "byteOffset" : 258836
        },
        {
            "buffer" : 0,
            "byteLength" : 13536,
            "byteOffset" : 272372
        },
        {
            "buffer" : 0,
            "byteLength" : 13536,
            "byteOffset" : 285908
        },
        {
            "buffer" : 0,
            "byteLength" : 13536,
            "byteOffset" : 299444
        },
        {
            "buffer" : 0,
            "byteLength" : 13536,
            "byteOffset" : 312980
        },
        {
            "buffer" : 0,
            "byteLength" : 13536,
            "byteOffset" : 326516
        },
        {
            "buffer" : 0,
            "byteLength" : 13536,
            "byteOffset" : 340052
        },
        {
            "buffer" : 0,
            "byteLength" : 3384,
            "byteOffset" : 353588
        },
        {
            "buffer" : 0,
            "byteLength" : 58504,
            "byteOffset" : 356972
        }
    ],
    "samplers" : [
        {
            "magFilter" : 9729,
            "minFilter" : 9987
        }
    ],
    "buffers" : [
        {
            "byteLength" : 415476,
            "uri" : "data:application/octet-stream;base64,"
        }
    ]
}
