{
    "asset" : {
        "generator" : "Khronos glTF Blender I/O v1.8.19",
        "version" : "2.0"
    },
    "scene" : 0,
    "scenes" : [
        {
            "name" : "Scene",
            "nodes" : [
                0
            ]
        }
    ],
    "nodes" : [
        {
            "mesh" : 0,
            "name" : "Mesh105__8_0",
            "scale" : [
                0.06499999761581421,
                0.06499999761581421,
                0.06499999761581421
            ],
            "translation" : [
                -0.03893023729324341,
                -0.006127834320068359,
                0.12110194563865662
            ]
        }
    ],
    "materials" : [
        {
            "doubleSided" : true,
            "name" : "material_1",
            "pbrMetallicRoughness" : {
                "baseColorTexture" : {
                    "index" : 0
                },
                "metallicFactor" : 0,
                "roughnessFactor" : 0.9302135109901428
            }
        },
        {
            "alphaMode" : "BLEND",
            "doubleSided" : true,
            "name" : "material",
            "pbrMetallicRoughness" : {
                "baseColorTexture" : {
                    "index" : 1
                },
                "metallicFactor" : 0,
                "roughnessFactor" : 0.9302135109901428
            }
        }
    ],
    "meshes" : [
        {
            "name" : "Mesh105__8_0",
            "primitives" : [
                {
                    "attributes" : {
                        "POSITION" : 0,
                        "NORMAL" : 1,
                        "TEXCOORD_0" : 2,
                        "TEXCOORD_1" : 3,
                        "TEXCOORD_2" : 4,
                        "TEXCOORD_3" : 5,
                        "TEXCOORD_4" : 6,
                        "TEXCOORD_5" : 7,
                        "TEXCOORD_6" : 8,
                        "TEXCOORD_7" : 9
                    },
                    "indices" : 10,
                    "material" : 0
                },
                {
                    "attributes" : {
                        "POSITION" : 11,
                        "NORMAL" : 12,
                        "TEXCOORD_0" : 13,
                        "TEXCOORD_1" : 14,
                        "TEXCOORD_2" : 15,
                        "TEXCOORD_3" : 16,
                        "TEXCOORD_4" : 17,
                        "TEXCOORD_5" : 18,
                        "TEXCOORD_6" : 19,
                        "TEXCOORD_7" : 20
                    },
                    "indices" : 21,
                    "material" : 1
                }
            ]
        }
    ],
    "textures" : [
        {
            "sampler" : 0,
            "source" : 0
        },
        {
            "sampler" : 0,
            "source" : 1
        }
    ],
    "images" : [
        {
            "bufferView" : 11,
            "mimeType" : "image/jpeg",
            "name" : "Image_1"
        },
        {
            "bufferView" : 23,
            "mimeType" : "image/png",
            "name" : "Image_0"
        }
    ],
    "accessors" : [
        {
            "bufferView" : 0,
            "componentType" : 5126,
            "count" : 1692,
            "max" : [
                8.031311988830566,
                2.1235790252685547,
                80.9986572265625
            ],
            "min" : [
                -13.078291893005371,
                -14.51292610168457,
                -1.495042085647583
            ],
            "type" : "VEC3"
        },
        {
            "bufferView" : 1,
            "componentType" : 5126,
            "count" : 1692,
            "type" : "VEC3"
        },
        {
            "bufferView" : 2,
            "componentType" : 5126,
            "count" : 1692,
            "type" : "VEC2"
        },
        {
            "bufferView" : 3,
            "componentType" : 5126,
            "count" : 1692,
            "type" : "VEC2"
        },
        {
            "bufferView" : 4,
            "componentType" : 5126,
            "count" : 1692,
            "type" : "VEC2"
        },
        {
            "bufferView" : 5,
            "componentType" : 5126,
            "count" : 1692,
            "type" : "VEC2"
        },
        {
            "bufferView" : 6,
            "componentType" : 5126,
            "count" : 1692,
            "type" : "VEC2"
        },
        {
            "bufferView" : 7,
            "componentType" : 5126,
            "count" : 1692,
            "type" : "VEC2"
        },
        {
            "bufferView" : 8,
            "componentType" : 5126,
            "count" : 1692,
            "type" : "VEC2"
        },
        {
            "bufferView" : 9,
            "componentType" : 5126,
            "count" : 1692,
            "type" : "VEC2"
        },
        {
            "bufferView" : 10,
            "componentType" : 5123,
            "count" : 1692,
            "type" : "SCALAR"
        },
        {
            "bufferView" : 12,
            "componentType" : 5126,
            "count" : 624,
            "max" : [
                31.45904541015625,
                23.07069206237793,
                101.45807647705078
            ],
            "min" : [
                -34.311981201171875,
                -37.91722106933594,
                25.112018585205078
            ],
            "type" : "VEC3"
        },
        {
            "bufferView" : 13,
            "componentType" : 5126,
            "count" : 624,
            "type" : "VEC3"
        },
        {
            "bufferView" : 14,
            "componentType" : 5126,
            "count" : 624,
            "type" : "VEC2"
        },
        {
            "bufferView" : 15,
            "componentType" : 5126,
            "count" : 624,
            "type" : "VEC2"
        },
        {
            "bufferView" : 16,
            "componentType" : 5126,
            "count" : 624,
            "type" : "VEC2"
        },
        {
            "bufferView" : 17,
            "componentType" : 5126,
            "count" : 624,
            "type" : "VEC2"
        },
        {
            "bufferView" : 18,
            "componentType" : 5126,
            "count" : 624,
            "type" : "VEC2"
        },
        {
            "bufferView" : 19,
            "componentType" : 5126,
            "count" : 624,
            "type" : "VEC2"
        },
        {
            "bufferView" : 20,
            "componentType" : 5126,
            "count" : 624,
            "type" : "VEC2"
        },
        {
            "bufferView" : 21,
            "componentType" : 5126,
            "count" : 624,
            "type" : "VEC2"
        },
        {
            "bufferView" : 22,
            "componentType" : 5123,
            "count" : 624,
            "type" : "SCALAR"
        }
    ],
    "bufferViews" : [
        {
            "buffer" : 0,
            "byteLength" : 20304,
            "byteOffset" : 0
        },
        {
            "buffer" : 0,
            "byteLength" : 20304,
            "byteOffset" : 20304
        },
        {
            "buffer" : 0,
            "byteLength" : 13536,
            "byteOffset" : 40608
        },
        {
            "buffer" : 0,
            "byteLength" : 13536,
            "byteOffset" : 54144
        },
        {
            "buffer" : 0,
            "byteLength" : 13536,
            "byteOffset" : 67680
        },
        {
            "buffer" : 0,
            "byteLength" : 13536,
            "byteOffset" : 81216
        },
        {
            "buffer" : 0,
            "byteLength" : 13536,
            "byteOffset" : 94752
        },
        {
            "buffer" : 0,
            "byteLength" : 13536,
            "byteOffset" : 108288
        },
        {
            "buffer" : 0,
            "byteLength" : 13536,
            "byteOffset" : 121824
        },
        {
            "buffer" : 0,
            "byteLength" : 13536,
            "byteOffset" : 135360
        },
        {
            "buffer" : 0,
            "byteLength" : 3384,
            "byteOffset" : 148896
        },
        {
            "buffer" : 0,
            "byteLength" : 58504,
            "byteOffset" : 152280
        },
        {
            "buffer" : 0,
            "byteLength" : 7488,
            "byteOffset" : 210784
        },
        {
            "buffer" : 0,
            "byteLength" : 7488,
            "byteOffset" : 218272
        },
        {
            "buffer" : 0,
            "byteLength" : 4992,
            "byteOffset" : 225760
        },
        {
            "buffer" : 0,
            "byteLength" : 4992,
            "byteOffset" : 230752
        },
        {
            "buffer" : 0,
            "byteLength" : 4992,
            "byteOffset" : 235744
        },
        {
            "buffer" : 0,
            "byteLength" : 4992,
            "byteOffset" : 240736
        },
        {
            "buffer" : 0,
            "byteLength" : 4992,
            "byteOffset" : 245728
        },
        {
            "buffer" : 0,
            "byteLength" : 4992,
            "byteOffset" : 250720
        },
        {
            "buffer" : 0,
            "byteLength" : 4992,
            "byteOffset" : 255712
        },
        {
            "buffer" : 0,
            "byteLength" : 4992,
            "byteOffset" : 260704
        },
        {
            "buffer" : 0,
            "byteLength" : 1248,
            "byteOffset" : 265696
        },
        {
            "buffer" : 0,
            "byteLength" : 148532,
            "byteOffset" : 266944
        }
    ],
    "samplers" : [
        {
            "magFilter" : 9729,
            "minFilter" : 9987
        }
    ],
    "buffers" : [
        {
            "byteLength" : 415476,
            "uri" : "data:application/octet-stream;base64,"
        }
    ]
}
