{
    "asset" : {
        "generator" : "Khronos glTF Blender I/O v1.8.19",
        "version" : "2.0"
    },
    "scene" : 0,
    "scenes" : [
        {
            "name" : "Scene",
            "nodes" : [
                0,
                1
            ]
        }
    ],
    "nodes" : [
        {
            "mesh" : 0,
            "name" : " \u042d\u043b\u0435\u043c\u0435\u043d\u0442 \u043f\u0440\u043e\u0438\u0437\u0432\u043e\u043b\u044c\u043d\u043e\u0439 \u0444\u043e\u0440\u043c\u044b [935197]",
            "rotation" : [
                0,
                0,
                0.5455904603004456,
                0.8380519151687622
            ],
            "scale" : [
                0.30480000376701355,
                0.30480000376701355,
                0.30480000376701355
            ],
            "translation" : [
                -0.3160656988620758,
                -0.399626761674881,
                0
            ]
        },
        {
            "mesh" : 1,
            "name" : " \u042d\u043b\u0435\u043c\u0435\u043d\u0442 \u043f\u0440\u043e\u0438\u0437\u0432\u043e\u043b\u044c\u043d\u043e\u0439 \u0444\u043e\u0440\u043c\u044b [935198]",
            "rotation" : [
                0,
                0,
                0.5455904603004456,
                0.8380519151687622
            ],
            "scale" : [
                0.30480000376701355,
                0.30480000376701355,
                0.30480000376701355
            ],
            "translation" : [
                -0.3160656988620758,
                -0.399626761674881,
                0
            ]
        }
    ],
    "materials" : [
        {
            "doubleSided" : true,
            "name" : "\u0414\u0435\u0440\u0435\u0432\u043e",
            "pbrMetallicRoughness" : {
                "baseColorFactor" : [
                    0.48689690232276917,
                    0.3138197660446167,
                    0.12430679798126221,
                    1
                ],
                "metallicFactor" : 0,
                "roughnessFactor" : 0.7834645509719849
            }
        },
        {
            "doubleSided" : true,
            "name" : "\u0410\u043b\u044e\u043c\u0438\u043d\u0438\u0439",
            "pbrMetallicRoughness" : {
                "baseColorFactor" : [
                    0.28100892901420593,
                    0.28100892901420593,
                    0.28100892901420593,
                    1
                ],
                "metallicFactor" : 0.7637795209884644,
                "roughnessFactor" : 0.4055117964744568
            }
        }
    ],
    "meshes" : [
        {
            "name" : " \u042d\u043b\u0435\u043c\u0435\u043d\u0442 \u043f\u0440\u043e\u0438\u0437\u0432\u043e\u043b\u044c\u043d\u043e\u0439 \u0444\u043e\u0440\u043c\u044b [93_547a3d2",
            "primitives" : [
                {
                    "attributes" : {
                        "POSITION" : 0,
                        "NORMAL" : 1,
                        "TEXCOORD_0" : 2
                    },
                    "indices" : 3,
                    "material" : 0
                }
            ]
        },
        {
            "name" : " \u042d\u043b\u0435\u043c\u0435\u043d\u0442 \u043f\u0440\u043e\u0438\u0437\u0432\u043e\u043b\u044c\u043d\u043e\u0439 \u0444\u043e\u0440\u043c\u044b [93_d045334",
            "primitives" : [
                {
                    "attributes" : {
                        "POSITION" : 4,
                        "NORMAL" : 5,
                        "TEXCOORD_0" : 6
                    },
                    "indices" : 7,
                    "material" : 1
                }
            ]
        }
    ],
    "accessors" : [
        {
            "bufferView" : 0,
            "componentType" : 5126,
            "count" : 6165,
            "max" : [
                1.4996964931488037,
                0.39375004172325134,
                2.6033222675323486
            ],
            "min" : [
                -1.4996964931488037,
                -0.39375004172325134,
                1.1224935054779053
            ],
            "type" : "VEC3"
        },
        {
            "bufferView" : 1,
            "componentType" : 5126,
            "count" : 6165,
            "type" : "VEC3"
        },
        {
            "bufferView" : 2,
            "componentType" : 5126,
            "count" : 6165,
            "type" : "VEC2"
        },
        {
            "bufferView" : 3,
            "componentType" : 5123,
            "count" : 7830,
            "type" : "SCALAR"
        },
        {
            "bufferView" : 4,
            "componentType" : 5126,
            "count" : 31660,
            "max" : [
                1.0513910055160522,
                0.756636381149292,
                2.9086809158325195
            ],
            "min" : [
                -1.0513910055160522,
                -0.756636381149292,
                0.012258206494152546
            ],
            "type" : "VEC3"
        },
        {
            "bufferView" : 5,
            "componentType" : 5126,
            "count" : 31660,
            "type" : "VEC3"
        },
        {
            "bufferView" : 6,
            "componentType" : 5126,
            "count" : 31660,
            "type" : "VEC2"
        },
        {
            "bufferView" : 7,
            "componentType" : 5123,
            "count" : 54612,
            "type" : "SCALAR"
        }
    ],
    "bufferViews" : [
        {
            "buffer" : 0,
            "byteLength" : 73980,
            "byteOffset" : 0
        },
        {
            "buffer" : 0,
            "byteLength" : 73980,
            "byteOffset" : 73980
        },
        {
            "buffer" : 0,
            "byteLength" : 49320,
            "byteOffset" : 147960
        },
        {
            "buffer" : 0,
            "byteLength" : 15660,
            "byteOffset" : 197280
        },
        {
            "buffer" : 0,
            "byteLength" : 379920,
            "byteOffset" : 212940
        },
        {
            "buffer" : 0,
            "byteLength" : 379920,
            "byteOffset" : 592860
        },
        {
            "buffer" : 0,
            "byteLength" : 253280,
            "byteOffset" : 972780
        },
        {
            "buffer" : 0,
            "byteLength" : 109224,
            "byteOffset" : 1226060
        }
    ],
    "buffers" : [
        {
            "byteLength" : 1335284,
            "uri" : "data:application/octet-stream;base64,"
        }
    ]
}
