{
    "asset" : {
        "generator" : "Khronos glTF Blender I/O v1.8.19",
        "version" : "2.0"
    },
    "scene" : 0,
    "scenes" : [
        {
            "name" : "Scene",
            "nodes" : [
                0,
                1
            ]
        }
    ],
    "nodes" : [
        {
            "mesh" : 0,
            "name" : " \u042d\u043b\u0435\u043c\u0435\u043d\u0442 \u043f\u0440\u043e\u0438\u0437\u0432\u043e\u043b\u044c\u043d\u043e\u0439 \u0444\u043e\u0440\u043c\u044b [931978]",
            "rotation" : [
                0,
                0,
                -0.7071067690849304,
                0.7071068286895752
            ],
            "scale" : [
                0.30480000376701355,
                0.30480000376701355,
                0.30480000376701355
            ],
            "translation" : [
                -0.6338340044021606,
                0.28454649448394775,
                0
            ]
        },
        {
            "mesh" : 1,
            "name" : " \u042d\u043b\u0435\u043c\u0435\u043d\u0442 \u043f\u0440\u043e\u0438\u0437\u0432\u043e\u043b\u044c\u043d\u043e\u0439 \u0444\u043e\u0440\u043c\u044b [931979]",
            "rotation" : [
                0,
                0,
                -0.7071067690849304,
                0.7071068286895752
            ],
            "scale" : [
                0.30480000376701355,
                0.30480000376701355,
                0.30480000376701355
            ],
            "translation" : [
                -0.6338340044021606,
                0.28454649448394775,
                0
            ]
        }
    ],
    "materials" : [
        {
            "doubleSided" : true,
            "name" : "\u0414\u0435\u0440\u0435\u0432\u043e",
            "pbrMetallicRoughness" : {
                "baseColorFactor" : [
                    0.48689690232276917,
                    0.3138197660446167,
                    0.12430679798126221,
                    1
                ],
                "metallicFactor" : 0,
                "roughnessFactor" : 0.7834645509719849
            }
        },
        {
            "doubleSided" : true,
            "name" : "\u0410\u043b\u044e\u043c\u0438\u043d\u0438\u0439",
            "pbrMetallicRoughness" : {
                "baseColorFactor" : [
                    0.28100892901420593,
                    0.28100892901420593,
                    0.28100892901420593,
                    1
                ],
                "metallicFactor" : 0.7637795209884644,
                "roughnessFactor" : 0.4055117964744568
            }
        }
    ],
    "meshes" : [
        {
            "name" : " \u042d\u043b\u0435\u043c\u0435\u043d\u0442 \u043f\u0440\u043e\u0438\u0437\u0432\u043e\u043b\u044c\u043d\u043e\u0439 \u0444\u043e\u0440\u043c\u044b [93_b3978df",
            "primitives" : [
                {
                    "attributes" : {
                        "POSITION" : 0,
                        "NORMAL" : 1,
                        "TEXCOORD_0" : 2
                    },
                    "indices" : 3,
                    "material" : 0
                }
            ]
        },
        {
            "name" : " \u042d\u043b\u0435\u043c\u0435\u043d\u0442 \u043f\u0440\u043e\u0438\u0437\u0432\u043e\u043b\u044c\u043d\u043e\u0439 \u0444\u043e\u0440\u043c\u044b [93_dba2224",
            "primitives" : [
                {
                    "attributes" : {
                        "POSITION" : 4,
                        "NORMAL" : 5,
                        "TEXCOORD_0" : 6
                    },
                    "indices" : 7,
                    "material" : 1
                }
            ]
        }
    ],
    "accessors" : [
        {
            "bufferView" : 0,
            "componentType" : 5126,
            "count" : 11110,
            "max" : [
                1.7883960008621216,
                1.416346549987793,
                1.735571026802063
            ],
            "min" : [
                -5.602625370025635,
                -1.433331847190857,
                0.003273781156167388
            ],
            "type" : "VEC3"
        },
        {
            "bufferView" : 1,
            "componentType" : 5126,
            "count" : 11110,
            "type" : "VEC3"
        },
        {
            "bufferView" : 2,
            "componentType" : 5126,
            "count" : 11110,
            "type" : "VEC2"
        },
        {
            "bufferView" : 3,
            "componentType" : 5123,
            "count" : 12246,
            "type" : "SCALAR"
        },
        {
            "bufferView" : 4,
            "componentType" : 5126,
            "count" : 27236,
            "max" : [
                5.566396236419678,
                1.9765301942825317,
                5.599005222320557
            ],
            "min" : [
                -5.605767726898193,
                -1.9604777097702026,
                0.010997479781508446
            ],
            "type" : "VEC3"
        },
        {
            "bufferView" : 5,
            "componentType" : 5126,
            "count" : 27236,
            "type" : "VEC3"
        },
        {
            "bufferView" : 6,
            "componentType" : 5126,
            "count" : 27236,
            "type" : "VEC2"
        },
        {
            "bufferView" : 7,
            "componentType" : 5123,
            "count" : 30594,
            "type" : "SCALAR"
        }
    ],
    "bufferViews" : [
        {
            "buffer" : 0,
            "byteLength" : 133320,
            "byteOffset" : 0
        },
        {
            "buffer" : 0,
            "byteLength" : 133320,
            "byteOffset" : 133320
        },
        {
            "buffer" : 0,
            "byteLength" : 88880,
            "byteOffset" : 266640
        },
        {
            "buffer" : 0,
            "byteLength" : 24492,
            "byteOffset" : 355520
        },
        {
            "buffer" : 0,
            "byteLength" : 326832,
            "byteOffset" : 380012
        },
        {
            "buffer" : 0,
            "byteLength" : 326832,
            "byteOffset" : 706844
        },
        {
            "buffer" : 0,
            "byteLength" : 217888,
            "byteOffset" : 1033676
        },
        {
            "buffer" : 0,
            "byteLength" : 61188,
            "byteOffset" : 1251564
        }
    ],
    "buffers" : [
        {
            "byteLength" : 1312752,
            "uri" : "data:application/octet-stream;base64,"
        }
    ]
}
