{
    "asset" : {
        "generator" : "Khronos glTF Blender I/O v1.8.19",
        "version" : "2.0"
    },
    "scene" : 0,
    "scenes" : [
        {
            "name" : "Scene",
            "nodes" : [
                0
            ]
        }
    ],
    "nodes" : [
        {
            "mesh" : 0,
            "name" : "Bench_wooden_01_Bench_wooden_01_0",
            "rotation" : [
                -0.7071067094802856,
                0,
                0,
                0.7071067690849304
            ],
            "scale" : [
                0.05999999865889549,
                0.05999999865889549,
                0.05999999865889549
            ]
        }
    ],
    "materials" : [
        {
            "doubleSided" : true,
            "name" : "Bench_wooden_01",
            "pbrMetallicRoughness" : {}
        }
    ],
    "meshes" : [
        {
            "name" : "Bench_wooden_01_Bench_wooden_01_0",
            "primitives" : [
                {
                    "attributes" : {
                        "POSITION" : 0,
                        "NORMAL" : 1,
                        "TEXCOORD_0" : 2,
                        "TEXCOORD_1" : 3
                    },
                    "indices" : 4,
                    "material" : 0
                }
            ]
        }
    ],
    "accessors" : [
        {
            "bufferView" : 0,
            "componentType" : 5126,
            "count" : 1411,
            "max" : [
                34.45782470703125,
                -0.11784744262695312,
                12.535027503967285
            ],
            "min" : [
                -34.45783233642578,
                -29.996200561523438,
                -12.662382125854492
            ],
            "type" : "VEC3"
        },
        {
            "bufferView" : 1,
            "componentType" : 5126,
            "count" : 1411,
            "type" : "VEC3"
        },
        {
            "bufferView" : 2,
            "componentType" : 5126,
            "count" : 1411,
            "type" : "VEC2"
        },
        {
            "bufferView" : 3,
            "componentType" : 5126,
            "count" : 1411,
            "type" : "VEC2"
        },
        {
            "bufferView" : 4,
            "componentType" : 5123,
            "count" : 1770,
            "type" : "SCALAR"
        }
    ],
    "bufferViews" : [
        {
            "buffer" : 0,
            "byteLength" : 16932,
            "byteOffset" : 0
        },
        {
            "buffer" : 0,
            "byteLength" : 16932,
            "byteOffset" : 16932
        },
        {
            "buffer" : 0,
            "byteLength" : 11288,
            "byteOffset" : 33864
        },
        {
            "buffer" : 0,
            "byteLength" : 11288,
            "byteOffset" : 45152
        },
        {
            "buffer" : 0,
            "byteLength" : 3540,
            "byteOffset" : 56440
        }
    ],
    "buffers" : [
        {
            "byteLength" : 59980,
            "uri" : "data:application/octet-stream;base64,"
        }
    ]
}
